<svg width="23" height="24" viewBox="0 0 23 24" fill="none" xmlns="http://www.w3.org/2000/svg">
<path d="M13.1098 0.103027C10.9648 2.66443 11.5803 8.48564 12.5879 11.7528C12.1398 11.331 11.7019 10.9343 11.2771 10.5651C10.9937 7.73967 5.31725 1.0016 1.0143 0.907047C1.15502 4.90277 7.31813 9.66494 10.19 10.8426C10.9227 11.4578 11.7119 12.1785 12.5335 12.9767C9.5359 11.2678 3.4452 9.93915 0.607849 11.7673C3.64284 14.046 12.4424 15.0023 14.0895 14.5411C14.7133 15.1881 15.327 15.8449 15.9303 16.5112C13.094 15.2983 7.93365 14.6781 5.67191 16.4517C8.43766 18.5111 15.2604 18.722 17.3282 18.0874C17.528 18.3177 17.727 18.5492 17.9251 18.7818C18.0772 18.7971 18.2345 18.8316 18.3971 18.8896C19.0382 19.1185 19.4341 19.6601 19.561 20.2377C19.6033 20.4305 19.6212 20.6279 19.6195 20.827C20.3805 21.7718 21.1111 22.7155 21.7905 23.6351L22.5256 23.0919C21.6705 21.9344 20.7407 20.7429 19.7718 19.5593C21.3904 17.4493 23.2155 10.7798 22.5707 8.41059C19.9284 10.0233 18.8159 15.5005 18.8415 18.4396C18.3841 17.8976 17.9208 17.3605 17.4517 16.8285C19.0417 14.7146 19.6396 6.39635 17.7884 3.35232C15.2369 5.88615 15.5237 12.473 16.3728 15.6243C15.6141 14.7926 14.8555 13.992 14.1118 13.241C15.2363 10.6015 15.4665 2.77651 13.1098 0.103027ZM16.2374 19.2474C15.5883 19.3293 14.907 19.4124 14.2218 19.4685C13.6069 20.3975 13.3779 21.8251 14.0623 22.0518C14.2606 22.1174 14.5619 22.062 14.9084 21.8399C15.1081 21.7118 15.3114 21.5327 15.4977 21.3257C15.6165 20.6629 15.8892 20.0141 16.285 19.536C16.281 19.4299 16.2666 19.3342 16.2374 19.2474H16.2374ZM12.3071 19.5277C10.7991 19.8883 9.44851 20.5414 8.71025 21.5462C9.78773 21.639 11.227 21.6519 12.7059 21.5918C12.6112 20.9555 12.7766 20.2014 13.1119 19.5299C12.84 19.5367 12.5708 19.5372 12.3071 19.5277ZM17.7854 19.6894C16.3311 19.6358 15.9052 23.198 17.0427 23.3067C17.2507 23.3265 17.532 23.2055 17.8203 22.9117C18.1086 22.618 18.3753 22.1753 18.5351 21.715C18.6949 21.2548 18.744 20.7794 18.6681 20.4337C18.5922 20.088 18.4458 19.8775 18.0898 19.7504C17.9839 19.7126 17.8824 19.693 17.7854 19.6894H17.7854Z" fill="white"/>
</svg>
